<?xml version="1.0" encoding="UTF-8"?>
<svg xmlns="http://www.w3.org/2000/svg" xmlns:xlink="http://www.w3.org/1999/xlink" width="450px" height="120px" viewBox="0 0 450 120" version="1.1">
<g id="surface1">
<path style=" stroke:none;fill-rule:nonzero;fill:rgb(10.980392%,43.529412%,83.529413%);fill-opacity:1;" d="M 236.222656 14.625 C 243.109375 16.261719 246.183594 18.992188 249.820312 21.664062 C 250.285156 21.984375 250.78125 22.332031 251.265625 22.703125 C 251.988281 23.226562 252.714844 23.753906 253.429688 24.265625 C 255.414062 25.6875 257.410156 27.109375 259.429688 28.546875 C 259.699219 28.753906 259.957031 28.902344 260.253906 29.097656 C 260.851562 29.496094 261.4375 29.914062 262.042969 30.390625 C 263.867188 30.390625 264.160156 30.265625 265.578125 29.914062 C 270.660156 28.679688 276.570312 28.492188 282.429688 28.902344 C 288.472656 29.445312 293.445312 30.6875 296.785156 32.601562 C 299.414062 34.371094 300.125 36.128906 300.125 38.121094 C 300.125 38.34375 300.125 38.597656 300.171875 38.886719 C 300.199219 39.640625 300.199219 40.382812 300.199219 41.203125 C 300.199219 41.746094 300.214844 42.316406 300.214844 42.839844 C 300.246094 44.035156 300.261719 45.085938 300.289062 46.277344 C 300.289062 47.546875 300.304688 48.886719 300.335938 50.234375 C 300.378906 51.46875 300.394531 52.765625 300.425781 54.066406 C 300.425781 54.625 300.441406 55.101562 300.441406 55.644531 C 300.46875 56.394531 300.46875 57.160156 300.46875 57.914062 C 300.484375 58.160156 300.484375 58.375 300.484375 58.582031 C 300.484375 61.664062 298.726562 64.183594 292.914062 66.371094 C 288.492188 67.882812 283.125 68.648438 277.148438 68.703125 C 270.035156 68.574219 264 67.660156 259.09375 65.769531 C 256.800781 64.722656 255.277344 63.722656 253.71875 62.535156 C 253.21875 62.140625 252.714844 61.796875 252.222656 61.441406 C 251.667969 61.046875 251.160156 60.628906 250.605469 60.226562 C 249.359375 59.328125 248.101562 58.441406 246.808594 57.5625 C 246.496094 57.289062 246.496094 57.289062 246.148438 57.085938 C 245.675781 56.738281 245.230469 56.394531 244.761719 56.058594 C 243.605469 55.226562 242.421875 54.328125 241.261719 53.515625 C 232.566406 47.316406 232.566406 47.316406 223.695312 41.058594 C 222.277344 41.683594 221.28125 42.390625 220.28125 43.144531 C 220.128906 43.261719 219.949219 43.390625 219.792969 43.523438 C 219.238281 43.871094 218.703125 44.265625 218.191406 44.691406 C 215.714844 46.550781 213.183594 48.375 210.546875 50.234375 C 208.722656 51.46875 206.953125 52.765625 205.152344 54.066406 C 204.882812 54.28125 204.640625 54.402344 204.324219 54.625 C 203.214844 55.449219 202.117188 56.269531 200.976562 57.085938 C 198.035156 59.207031 195.050781 61.371094 191.933594 63.433594 C 191.710938 63.65625 191.460938 63.777344 191.191406 63.960938 C 187.78125 66.238281 183.125 67.660156 176.214844 68.425781 C 169.644531 68.953125 163.21875 68.648438 157.445312 67.316406 C 152.46875 66.121094 148.753906 64.378906 147.28125 62.207031 C 145.773438 58.582031 149.109375 55.925781 153.585938 52.765625 C 154.03125 52.472656 154.480469 52.160156 154.902344 51.871094 C 155.824219 51.203125 156.75 50.597656 157.644531 49.890625 C 159.769531 48.441406 161.832031 46.945312 163.910156 45.457031 C 165.050781 44.640625 166.183594 43.8125 167.335938 42.996094 C 167.566406 42.792969 167.8125 42.621094 168.03125 42.519531 C 170.445312 40.746094 172.847656 39.035156 175.234375 37.308594 C 178.203125 35.183594 181.15625 33.078125 184.109375 30.957031 C 187.65625 28.441406 191.191406 25.910156 194.761719 23.351562 C 195.171875 23.097656 195.542969 22.824219 195.921875 22.535156 C 196.964844 21.8125 197.992188 21.058594 199.058594 20.285156 C 199.449219 20.019531 199.804688 19.722656 200.183594 19.46875 C 200.765625 19.050781 201.296875 18.648438 201.867188 18.226562 C 202.046875 18.179688 202.222656 18.003906 202.402344 17.898438 C 205.433594 15.769531 210.074219 14.542969 216.027344 13.671875 C 222.714844 12.90625 230.320312 13.300781 236.222656 14.625 Z M 236.222656 14.625 "/>
<path style=" stroke:none;fill-rule:nonzero;fill:rgb(2.352941%,30.980393%,24.705882%);fill-opacity:1;" d="M 290.996094 30.265625 C 296.160156 31.78125 299.21875 33.820312 300.019531 36.230469 C 300.109375 36.828125 300.125 37.519531 300.125 38.121094 C 300.125 38.34375 300.125 38.597656 300.171875 38.886719 C 300.199219 39.640625 300.199219 40.382812 300.199219 41.203125 C 300.199219 41.746094 300.214844 42.316406 300.214844 42.839844 C 300.246094 44.035156 300.261719 45.085938 300.289062 46.277344 C 300.289062 47.546875 300.304688 48.886719 300.335938 50.234375 C 300.378906 51.46875 300.394531 52.765625 300.425781 54.066406 C 300.425781 54.625 300.441406 55.101562 300.441406 55.644531 C 300.46875 56.394531 300.46875 57.160156 300.46875 57.914062 C 300.484375 58.21875 300.484375 58.21875 300.484375 58.582031 C 300.484375 61.664062 298.726562 64.183594 292.914062 66.371094 C 291.96875 66.714844 290.996094 67.011719 289.972656 67.242188 C 289.4375 67.40625 289.4375 67.40625 288.902344 67.535156 C 285.667969 68.359375 282.472656 68.359375 278.734375 68.359375 C 278.015625 68.359375 278.015625 68.359375 277.265625 68.359375 C 270.726562 68.359375 265.648438 67.535156 260.925781 65.902344 C 255.722656 63.777344 254.742188 61.574219 254.742188 58.851562 C 254.726562 58.640625 254.726562 58.375 254.726562 58.089844 C 254.726562 57.398438 254.707031 56.738281 254.707031 56.058594 C 254.707031 55.644531 254.707031 55.226562 254.707031 54.808594 C 254.679688 53.292969 254.679688 51.8125 254.679688 50.300781 C 254.679688 48.953125 254.652344 47.546875 254.636719 46.121094 C 254.636719 44.964844 254.589844 43.738281 254.589844 42.578125 C 254.589844 41.8125 254.589844 41.15625 254.589844 40.457031 C 254.5625 39.640625 254.5625 38.820312 254.5625 38.070312 C 254.5625 37.777344 254.5625 37.59375 254.546875 37.308594 C 254.636719 34.707031 257.601562 32.777344 262.242188 30.828125 C 270.460938 28.144531 281.902344 28.023438 290.996094 30.265625 Z M 290.996094 30.265625 "/>
<path style=" stroke:none;fill-rule:nonzero;fill:rgb(10.980392%,43.921569%,83.92157%);fill-opacity:1;" d="M 4.082031 75.964844 C 10.789062 75.964844 17.460938 75.964844 24.367188 75.964844 C 24.386719 77.675781 24.386719 77.675781 24.410156 79.363281 C 24.4375 80.0625 24.4375 80.792969 24.457031 81.484375 C 24.476562 82.652344 24.496094 83.820312 24.546875 84.898438 C 24.566406 85.882812 24.585938 86.753906 24.617188 87.703125 C 24.617188 88.046875 24.617188 88.390625 24.617188 88.746094 C 24.636719 89.214844 24.636719 89.691406 24.65625 90.21875 C 24.65625 90.382812 24.65625 90.503906 24.65625 90.636719 C 24.707031 91.929688 25.546875 93.046875 27.890625 94.089844 C 28.335938 94.199219 28.78125 94.320312 29.273438 94.484375 C 29.632812 94.609375 29.984375 94.691406 30.324219 94.832031 C 33.289062 95.515625 36.226562 95.5625 39.597656 95.5625 C 40.285156 95.5625 40.285156 95.5625 40.980469 95.5625 C 41.9375 95.5625 42.914062 95.5625 43.878906 95.5625 C 45.367188 95.5625 46.839844 95.5625 48.28125 95.5625 C 49.242188 95.5625 50.179688 95.5625 51.136719 95.5625 C 51.78125 95.5625 51.78125 95.5625 52.453125 95.5625 C 56.21875 95.5625 59.097656 95.210938 62.261719 94.484375 C 66.027344 93.046875 66.570312 91.253906 66.632812 89.347656 C 66.660156 89.214844 66.660156 89.089844 66.660156 88.871094 C 66.679688 88.390625 66.679688 87.914062 66.703125 87.453125 C 66.703125 87.152344 66.722656 86.828125 66.722656 86.484375 C 66.75 85.597656 66.765625 84.691406 66.8125 83.871094 C 66.855469 82.785156 66.878906 81.78125 66.898438 80.746094 C 66.96875 79.097656 67.035156 77.503906 67.078125 75.964844 C 73.746094 75.964844 80.449219 75.964844 87.320312 75.964844 C 87.386719 79.921875 87.386719 79.921875 87.386719 81.617188 C 87.386719 82.785156 87.410156 83.941406 87.410156 85.121094 C 87.429688 86.058594 87.429688 86.9375 87.429688 87.914062 C 87.429688 88.269531 87.429688 88.574219 87.445312 89 C 87.5 92.628906 86.785156 95.835938 80.214844 98.722656 C 79.898438 98.84375 79.5625 99.058594 79.253906 99.191406 C 74.070312 101.304688 66.292969 102.527344 58.785156 102.816406 C 57.054688 102.816406 55.28125 102.816406 53.523438 102.816406 C 52.5625 102.816406 52.5625 102.816406 51.582031 102.816406 C 50.25 102.816406 48.890625 102.816406 47.554688 102.816406 C 45.527344 102.816406 43.46875 102.816406 41.445312 102.816406 C 30.09375 102.890625 20.960938 102.339844 12.417969 99.410156 C 6.804688 97.199219 3.882812 94.609375 3.949219 91.683594 C 3.949219 91.550781 3.949219 91.335938 3.949219 91.113281 C 3.949219 90.589844 3.996094 90.035156 3.996094 89.476562 C 3.996094 89.089844 3.996094 88.648438 3.996094 88.34375 C 3.996094 87.308594 4.019531 86.277344 4.019531 85.242188 C 4.039062 84.164062 4.039062 83.128906 4.039062 82.085938 C 4.039062 80.0625 4.058594 77.980469 4.082031 75.964844 Z M 4.082031 75.964844 "/>
<path style=" stroke:none;fill-rule:nonzero;fill:rgb(22.352941%,70.588237%,29.019609%);fill-opacity:1;" d="M 369.097656 75.816406 C 369.835938 75.816406 369.835938 75.816406 370.621094 75.816406 C 373.9375 75.816406 375.988281 76.039062 378.691406 76.78125 C 379.734375 77.160156 379.734375 77.160156 380.640625 77.785156 C 380.820312 77.859375 380.957031 77.980469 381.152344 78.128906 C 383.433594 79.550781 385.574219 81.066406 387.710938 82.527344 C 389.855469 84.027344 392.082031 85.515625 394.3125 86.9375 C 396.746094 88.523438 399.105469 90.109375 401.425781 91.683594 C 403.765625 93.261719 406.167969 94.90625 408.617188 96.476562 C 408.933594 96.671875 409.199219 96.855469 409.539062 97.078125 C 410.09375 97.421875 410.671875 97.765625 411.253906 98.1875 C 412.609375 99.058594 413.925781 99.953125 415.261719 100.761719 C 415.507812 100.957031 415.738281 101.105469 415.980469 101.253906 C 417.5625 102.289062 417.5625 102.289062 417.5625 102.75 C 410.339844 102.75 403.113281 102.75 395.648438 102.75 C 394.042969 101.65625 392.394531 100.652344 390.746094 99.535156 C 390.371094 99.320312 390.011719 99.117188 389.632812 98.933594 C 388.140625 98.796875 388.140625 98.796875 386.378906 98.84375 C 385.378906 98.84375 385.378906 98.84375 384.351562 98.796875 C 383.59375 98.796875 382.828125 98.796875 382.09375 98.796875 C 381.332031 98.796875 380.582031 98.796875 379.804688 98.796875 C 377.816406 98.796875 375.828125 98.796875 373.804688 98.796875 C 371.773438 98.796875 369.730469 98.796875 367.695312 98.796875 C 363.675781 98.722656 359.695312 98.722656 355.683594 98.722656 C 356.058594 97.898438 356.636719 97.371094 357.691406 96.671875 C 357.996094 96.476562 358.265625 96.253906 358.574219 96.039062 C 358.914062 95.835938 359.199219 95.660156 359.519531 95.441406 C 360.125 95.035156 360.714844 94.609375 361.320312 94.265625 C 361.585938 94.089844 361.882812 93.871094 362.148438 93.722656 C 362.542969 93.449219 362.945312 93.195312 363.316406 92.839844 C 369.128906 92.839844 374.917969 92.839844 380.867188 92.839844 C 379.574219 91.929688 378.3125 91.039062 376.960938 90.109375 C 376.390625 89.617188 376.390625 89.617188 375.738281 89.214844 C 373.695312 87.703125 371.578125 86.277344 369.398438 84.839844 C 365.847656 87.101562 362.484375 89.394531 359.128906 91.746094 C 358.929688 91.863281 358.738281 92.027344 358.484375 92.160156 C 358.289062 92.371094 358.066406 92.496094 357.84375 92.628906 C 357.425781 92.898438 357.015625 93.261719 356.59375 93.5 C 356.253906 93.722656 356.253906 93.722656 355.933594 94.015625 C 353.785156 95.441406 351.644531 96.953125 349.480469 98.425781 C 349.148438 98.640625 348.839844 98.84375 348.480469 99.117188 C 348.167969 99.320312 347.886719 99.535156 347.542969 99.757812 C 347.277344 99.953125 347.015625 100.136719 346.75 100.285156 C 345.539062 101.105469 344.289062 101.921875 343.085938 102.75 C 335.683594 102.75 328.277344 102.75 320.617188 102.75 C 321.640625 101.78125 322.800781 100.957031 324.101562 100.011719 C 324.316406 99.890625 324.566406 99.757812 324.832031 99.535156 C 326.992188 98.03125 329.292969 96.550781 331.585938 95.085938 C 333.734375 93.671875 335.792969 92.273438 337.871094 90.859375 C 340.503906 89.089844 343.15625 87.308594 345.875 85.515625 C 348.367188 83.941406 350.796875 82.308594 353.179688 80.660156 C 360.234375 75.816406 360.234375 75.816406 369.097656 75.816406 Z M 369.097656 75.816406 "/>
<path style=" stroke:none;fill-rule:nonzero;fill:rgb(10.980392%,43.921569%,83.529413%);fill-opacity:1;" d="M 158.3125 85.242188 C 163.695312 87.308594 165.578125 90.035156 165.84375 92.898438 C 165.605469 95.5625 163.695312 98.246094 158.578125 100.234375 C 152.007812 102.398438 144.382812 102.949219 135.6875 102.949219 C 134.578125 102.949219 133.484375 102.949219 132.367188 103.039062 C 131.636719 103.039062 130.921875 103.039062 130.207031 103.039062 C 129.222656 103.039062 129.222656 103.039062 128.246094 103.039062 C 126.214844 102.949219 126.214844 102.949219 121.292969 102.527344 C 121.292969 100.433594 121.292969 98.316406 121.292969 96.121094 C 123.113281 96.179688 124.972656 96.253906 126.863281 96.328125 C 134.890625 96.597656 134.890625 96.597656 142.449219 95.726562 C 144.953125 94.90625 145.773438 93.917969 145.953125 92.628906 C 145.613281 91.335938 144.867188 90.382812 142.085938 89.394531 C 138.453125 88.648438 134.757812 88.746094 130.628906 88.746094 C 129.9375 88.746094 129.269531 88.746094 128.582031 88.746094 C 123.164062 88.746094 123.164062 88.746094 118.527344 89.617188 C 116.769531 90.734375 116.679688 91.550781 116.679688 92.75 C 116.679688 92.898438 116.652344 93.105469 116.652344 93.316406 C 116.625 93.917969 116.625 94.542969 116.625 95.136719 C 116.625 95.5625 116.589844 95.964844 116.589844 96.476562 C 116.566406 97.554688 116.539062 98.722656 116.539062 99.824219 C 116.519531 100.957031 116.503906 102.125 116.476562 103.246094 C 116.433594 105.503906 116.386719 107.742188 116.34375 109.980469 C 110.035156 109.980469 103.695312 109.980469 97.179688 109.980469 C 97.125 107.324219 97.105469 104.75 97.089844 102.078125 C 97.054688 100.828125 97.054688 99.667969 97.035156 98.425781 C 97 97.199219 96.964844 96.039062 96.964844 94.90625 C 96.964844 94.394531 96.964844 94.015625 96.949219 93.5 C 96.878906 90.21875 96.964844 87.355469 103.214844 84.839844 C 116.519531 80.136719 145.277344 80.957031 158.3125 85.242188 Z M 158.3125 85.242188 "/>
<path style=" stroke:none;fill-rule:nonzero;fill:rgb(11.372549%,43.921569%,83.529413%);fill-opacity:1;" d="M 232.011719 84.765625 C 237.960938 86.828125 240.679688 89.558594 240.929688 92.496094 C 240.574219 95.515625 237.890625 97.898438 232.34375 100.011719 C 225.328125 102.339844 217.03125 102.890625 207.871094 102.816406 C 206.484375 102.816406 205.085938 102.816406 203.699219 102.890625 C 194.351562 102.890625 186.308594 102.125 179.273438 99.757812 C 173.09375 97.296875 171.738281 94.542969 172.007812 91.335938 C 172.402344 88.746094 175.503906 86.484375 180.511719 84.765625 C 193.621094 80.746094 218.898438 80.792969 232.011719 84.765625 Z M 193.070312 90.035156 C 190.925781 91.203125 191.070312 92.371094 191.371094 93.671875 C 192.265625 94.691406 193.980469 95.308594 196.324219 95.910156 C 199.488281 96.476562 202.609375 96.386719 206.058594 96.386719 C 207.023438 96.386719 207.023438 96.386719 207.976562 96.386719 C 211.832031 96.386719 214.40625 96.253906 217.675781 95.515625 C 220.636719 94.320312 221.191406 93.390625 221.136719 91.863281 C 220.816406 90.808594 219.613281 90.167969 217.425781 89.347656 C 213.824219 88.523438 210.480469 88.523438 206.265625 88.523438 C 205.328125 88.523438 205.328125 88.523438 204.355469 88.523438 C 199.773438 88.523438 196.234375 88.746094 193.070312 90.035156 Z M 193.070312 90.035156 "/>
<path style=" stroke:none;fill-rule:nonzero;fill:rgb(10.980392%,43.921569%,83.92157%);fill-opacity:1;" d="M 248.332031 81.960938 C 257.671875 81.960938 257.671875 81.960938 267.191406 81.960938 C 270.109375 81.960938 270.109375 81.960938 273.09375 81.960938 C 275.523438 81.960938 275.523438 81.960938 276.65625 81.960938 C 277.445312 81.960938 278.222656 81.960938 279.003906 81.960938 C 283.425781 81.902344 287.828125 81.960938 292.238281 82.175781 C 292.609375 82.175781 292.984375 82.175781 293.355469 82.222656 C 299.484375 82.527344 304.835938 83.34375 309.132812 84.988281 C 312.609375 86.699219 314.671875 88.574219 314.671875 90.808594 C 314.671875 90.859375 314.671875 90.984375 314.671875 91.113281 C 314.671875 91.625 314.671875 92.027344 314.632812 92.445312 C 314.632812 92.683594 314.632812 93.046875 314.632812 93.316406 C 314.632812 94.089844 314.632812 94.90625 314.632812 95.660156 C 314.632812 96.597656 314.617188 97.554688 314.617188 98.425781 C 314.617188 99.890625 314.617188 101.304688 314.601562 102.75 C 308.265625 102.75 301.957031 102.75 295.429688 102.75 C 295.429688 101.921875 295.402344 101.046875 295.382812 100.136719 C 295.367188 99.535156 295.339844 98.84375 295.292969 98.1875 C 295.277344 97.421875 295.25 96.730469 295.25 96.039062 C 295.222656 95.210938 295.203125 94.394531 295.1875 93.574219 C 295.1875 93.316406 295.160156 93.046875 295.160156 92.75 C 295.160156 92.554688 295.132812 92.371094 295.132812 92.078125 C 295.132812 91.863281 295.097656 91.683594 295.097656 91.460938 C 294.777344 90.589844 293.9375 89.90625 292.148438 89.273438 C 290.5 88.953125 289.09375 88.796875 287.226562 88.796875 C 286.753906 88.796875 286.332031 88.796875 285.859375 88.796875 C 285.175781 88.796875 285.175781 88.796875 284.480469 88.796875 C 284.035156 88.746094 283.589844 88.746094 283.160156 88.746094 C 281.542969 88.746094 279.964844 88.746094 278.355469 88.746094 C 274.777344 88.648438 271.195312 88.648438 267.5 88.648438 C 267.5 93.316406 267.5 97.964844 267.5 102.75 C 261.171875 102.75 254.859375 102.75 248.332031 102.75 C 248.332031 95.910156 248.332031 89 248.332031 81.960938 Z M 248.332031 81.960938 "/>
<path style=" stroke:none;fill-rule:nonzero;fill:rgb(1.568628%,30.980393%,54.901963%);fill-opacity:1;" d="M 236.222656 14.625 C 241.0625 15.769531 245.007812 17.488281 246.210938 19.601562 C 248.0625 23.300781 244.316406 26.039062 239.789062 29.191406 C 239.257812 29.566406 238.757812 29.914062 238.230469 30.265625 C 237.203125 31.03125 236.132812 31.78125 235.085938 32.546875 C 233.609375 33.546875 232.183594 34.59375 230.78125 35.613281 C 230.320312 35.957031 229.894531 36.230469 229.464844 36.582031 C 228.867188 36.960938 228.261719 37.472656 227.644531 37.867188 C 227.109375 38.292969 226.558594 38.6875 225.988281 39.109375 C 225.648438 39.296875 225.367188 39.511719 225.03125 39.765625 C 224.25 40.234375 224.25 40.234375 223.140625 40.457031 C 222.875 40.234375 222.875 40.234375 222.578125 40.035156 C 218.050781 36.699219 218.050781 36.699219 213.375 33.367188 C 213.148438 33.195312 212.949219 33.078125 212.703125 32.847656 C 211.660156 32.175781 210.589844 31.425781 209.546875 30.6875 C 208.601562 30.085938 207.671875 29.394531 206.773438 28.753906 C 206.398438 28.492188 206.039062 28.226562 205.667969 28.023438 C 201.71875 25.265625 198.988281 22.535156 201.386719 19.410156 C 201.671875 19.125 202.003906 18.777344 202.34375 18.523438 C 202.492188 18.300781 202.609375 18.179688 202.769531 18.003906 C 204.882812 15.917969 209.234375 14.722656 214.554688 13.851562 C 221.421875 12.847656 229.960938 13.253906 236.222656 14.625 Z M 236.222656 14.625 "/>
<path style=" stroke:none;fill-rule:nonzero;fill:rgb(21.960784%,70.588237%,28.627452%);fill-opacity:1;" d="M 289.4375 29.914062 C 295.203125 31.351562 298.121094 33.144531 299.824219 35.613281 C 300.082031 36.433594 300.082031 37.175781 300.066406 37.914062 C 300.066406 38.21875 300.066406 38.390625 300.066406 38.597656 C 300.066406 39.347656 300.035156 40.035156 300.035156 40.808594 C 300.035156 41.269531 300.019531 41.8125 300.019531 42.316406 C 300.019531 43.605469 299.992188 44.90625 299.949219 46.277344 C 299.929688 47.546875 299.929688 48.953125 299.914062 50.300781 C 299.914062 52.890625 299.859375 55.578125 299.824219 58.160156 C 298.902344 57.683594 298.234375 57.214844 297.53125 56.648438 C 297.300781 56.515625 297.070312 56.34375 296.800781 56.121094 C 296.566406 55.925781 296.320312 55.703125 296.027344 55.515625 C 292.914062 53.113281 289.613281 50.726562 286.273438 48.316406 C 285.683594 47.839844 285.113281 47.4375 284.53125 47.027344 C 279.644531 43.523438 274.6875 39.980469 269.75 36.484375 C 269.039062 36.007812 268.324219 35.464844 267.589844 35.003906 C 267.121094 34.640625 266.609375 34.3125 266.148438 33.96875 C 264.640625 32.949219 263.238281 31.828125 262.042969 30.746094 C 270.214844 28.441406 280.289062 28.023438 289.4375 29.914062 Z M 289.4375 29.914062 "/>
<path style=" stroke:none;fill-rule:nonzero;fill:rgb(22.352941%,70.588237%,29.019609%);fill-opacity:1;" d="M 286.539062 12.980469 C 291.460938 14.132812 294.984375 15.546875 296.855469 17.609375 C 297.996094 20.019531 297.160156 22.191406 293.398438 24.265625 C 290.523438 25.5625 286.363281 26.632812 281.757812 26.910156 C 274.921875 27.109375 269.4375 26.976562 264.015625 25.265625 C 259.496094 23.703125 257.535156 22.058594 257.089844 19.722656 C 257.15625 17.554688 259.359375 15.84375 263.238281 14.328125 C 268.992188 12.273438 279.292969 11.617188 286.539062 12.980469 Z M 286.539062 12.980469 "/>
<path style=" stroke:none;fill-rule:nonzero;fill:rgb(21.960784%,70.588237%,29.019609%);fill-opacity:1;" d="M 424.136719 82.175781 C 430.460938 82.175781 436.78125 82.175781 443.304688 82.175781 C 443.304688 88.953125 443.304688 95.777344 443.304688 102.75 C 436.976562 102.75 430.671875 102.75 424.136719 102.75 C 424.136719 95.964844 424.136719 89.164062 424.136719 82.175781 Z M 424.136719 82.175781 "/>
<path style=" stroke:none;fill-rule:nonzero;fill:rgb(22.352941%,70.588237%,29.019609%);fill-opacity:1;" d="M 433.410156 74.027344 C 433.832031 74.027344 434.257812 74.027344 434.722656 74.027344 C 437.671875 74.027344 439.359375 74.183594 441.683594 74.921875 C 443.441406 75.613281 443.53125 76.089844 443.53125 77.042969 C 443.460938 78.070312 443.28125 78.730469 441.121094 79.550781 C 437.691406 80.367188 433.585938 80.316406 429.59375 80.191406 C 426.695312 79.714844 425.003906 79.148438 423.585938 78.128906 C 423.316406 77.09375 423.226562 76.214844 424.511719 75.210938 C 427.265625 74.183594 429.550781 74.027344 433.410156 74.027344 Z M 433.410156 74.027344 "/>
<path style=" stroke:none;fill-rule:nonzero;fill:rgb(10.196079%,42.352942%,76.862746%);fill-opacity:1;" d="M 263.128906 66.640625 C 265.203125 66.929688 267.144531 67.316406 269.097656 67.660156 C 271.886719 68.136719 274.851562 68.136719 277.792969 68.136719 C 278.238281 68.226562 278.683594 68.226562 279.113281 68.226562 C 280.164062 68.226562 281.226562 68.226562 282.277344 68.285156 C 282.277344 68.359375 282.277344 68.425781 282.277344 68.492188 C 275.613281 68.777344 269.410156 68.703125 263.65625 67.242188 C 263.480469 67.058594 263.308594 66.847656 263.128906 66.640625 Z M 263.128906 66.640625 "/>
<path style=" stroke:none;fill-rule:nonzero;fill:rgb(6.27451%,37.254903%,69.411767%);fill-opacity:1;" d="M 210.546875 14.796875 C 209.785156 15.496094 208.902344 15.917969 207.550781 16.371094 C 207.046875 16.582031 207.046875 16.582031 206.550781 16.789062 C 205.613281 17.058594 205.613281 17.058594 204.527344 17.058594 C 204.355469 17.265625 204.175781 17.488281 203.964844 17.703125 C 203.789062 17.554688 203.609375 17.40625 203.445312 17.265625 C 209.113281 14.796875 209.113281 14.796875 210.546875 14.796875 Z M 210.546875 14.796875 "/>
</g>
</svg>
