<svg version="1.1" viewBox="532 139.73799126637553 689.5 113.53711790393012" xmlns:xlink="http://www.w3.org/1999/xlink" xmlns="http://www.w3.org/2000/svg" style="max-height: 500px" width="689.5" height="113.53711790393012">
<g id="surface1">
<path d="M 894.207031 153.632812 C 904.765625 155.1875 909.480469 157.78125 915.058594 160.320312 C 915.769531 160.625 916.535156 160.953125 917.273438 161.304688 C 918.378906 161.804688 919.5 162.304688 920.59375 162.789062 C 923.632812 164.140625 926.691406 165.492188 929.796875 166.859375 C 930.207031 167.054688 930.605469 167.195312 931.054688 167.382812 C 931.972656 167.757812 932.871094 168.15625 933.800781 168.609375 C 936.59375 168.609375 937.042969 168.492188 939.21875 168.15625 C 947.011719 166.984375 956.074219 166.804688 965.058594 167.195312 C 974.324219 167.710938 981.953125 168.890625 987.070312 170.710938 C 991.101562 172.390625 992.195312 174.0625 992.195312 175.953125 C 992.195312 176.164062 992.195312 176.40625 992.265625 176.679688 C 992.304688 177.398438 992.304688 178.101562 992.304688 178.882812 C 992.304688 179.398438 992.332031 179.9375 992.332031 180.4375 C 992.375 181.570312 992.402344 182.570312 992.441406 183.703125 C 992.441406 184.90625 992.46875 186.179688 992.511719 187.460938 C 992.578125 188.632812 992.605469 189.867188 992.648438 191.101562 C 992.648438 191.632812 992.675781 192.085938 992.675781 192.601562 C 992.714844 193.3125 992.714844 194.039062 992.714844 194.757812 C 992.742188 194.992188 992.742188 195.195312 992.742188 195.390625 C 992.742188 198.320312 990.046875 200.710938 981.132812 202.789062 C 974.355469 204.226562 966.125 204.953125 956.960938 205.007812 C 946.054688 204.882812 936.796875 204.015625 929.277344 202.21875 C 925.761719 201.226562 923.425781 200.273438 921.03125 199.148438 C 920.265625 198.773438 919.5 198.445312 918.738281 198.109375 C 917.890625 197.734375 917.109375 197.335938 916.261719 196.953125 C 914.347656 196.101562 912.421875 195.257812 910.4375 194.421875 C 909.960938 194.164062 909.960938 194.164062 909.425781 193.96875 C 908.699219 193.640625 908.015625 193.3125 907.304688 192.992188 C 905.527344 192.203125 903.710938 191.351562 901.933594 190.578125 C 888.601562 184.6875 888.601562 184.6875 875 178.742188 C 872.824219 179.335938 871.296875 180.007812 869.765625 180.726562 C 869.53125 180.835938 869.257812 180.960938 869.011719 181.085938 C 868.164062 181.414062 867.34375 181.789062 866.5625 182.195312 C 862.765625 183.960938 858.878906 185.695312 854.835938 187.460938 C 852.042969 188.632812 849.324219 189.867188 846.5625 191.101562 C 846.152344 191.304688 845.78125 191.421875 845.292969 191.632812 C 843.59375 192.414062 841.914062 193.195312 840.164062 193.96875 C 835.652344 195.984375 831.074219 198.039062 826.300781 200 C 825.957031 200.210938 825.574219 200.328125 825.164062 200.5 C 819.929688 202.664062 812.792969 204.015625 802.199219 204.742188 C 792.121094 205.242188 782.265625 204.953125 773.417969 203.6875 C 765.789062 202.554688 760.089844 200.898438 757.832031 198.835938 C 755.519531 195.390625 760.636719 192.867188 767.5 189.867188 C 768.183594 189.585938 768.867188 189.289062 769.519531 189.015625 C 770.929688 188.382812 772.351562 187.804688 773.71875 187.132812 C 776.984375 185.757812 780.144531 184.335938 783.328125 182.921875 C 785.078125 182.148438 786.816406 181.359375 788.582031 180.585938 C 788.9375 180.390625 789.316406 180.226562 789.648438 180.132812 C 793.351562 178.445312 797.03125 176.820312 800.695312 175.179688 C 805.246094 173.164062 809.773438 171.164062 814.296875 169.148438 C 819.738281 166.757812 825.164062 164.351562 830.632812 161.921875 C 831.261719 161.679688 831.835938 161.421875 832.410156 161.148438 C 834.011719 160.460938 835.585938 159.742188 837.226562 159.007812 C 837.824219 158.757812 838.371094 158.476562 838.945312 158.234375 C 839.835938 157.835938 840.65625 157.453125 841.53125 157.054688 C 841.804688 157.007812 842.078125 156.84375 842.351562 156.742188 C 847 154.71875 854.109375 153.554688 863.242188 152.726562 C 873.496094 152 885.15625 152.375 894.207031 153.632812 Z M 894.207031 153.632812" style="stroke:none;fill-rule:nonzero;fill:rgb(10.980392%,43.529412%,83.529413%);fill-opacity:1;"/>
<path d="M 978.195312 168.492188 C 986.113281 169.929688 990.800781 171.867188 992.03125 174.15625 C 992.167969 174.726562 992.195312 175.382812 992.195312 175.953125 C 992.195312 176.164062 992.195312 176.40625 992.265625 176.679688 C 992.304688 177.398438 992.304688 178.101562 992.304688 178.882812 C 992.304688 179.398438 992.332031 179.9375 992.332031 180.4375 C 992.375 181.570312 992.402344 182.570312 992.441406 183.703125 C 992.441406 184.90625 992.46875 186.179688 992.511719 187.460938 C 992.578125 188.632812 992.605469 189.867188 992.648438 191.101562 C 992.648438 191.632812 992.675781 192.085938 992.675781 192.601562 C 992.714844 193.3125 992.714844 194.039062 992.714844 194.757812 C 992.742188 195.046875 992.742188 195.046875 992.742188 195.390625 C 992.742188 198.320312 990.046875 200.710938 981.132812 202.789062 C 979.6875 203.117188 978.195312 203.398438 976.621094 203.617188 C 975.800781 203.773438 975.800781 203.773438 974.980469 203.898438 C 970.019531 204.679688 965.125 204.679688 959.394531 204.679688 C 958.289062 204.679688 958.289062 204.679688 957.140625 204.679688 C 947.117188 204.679688 939.328125 203.898438 932.082031 202.34375 C 924.109375 200.328125 922.605469 198.234375 922.605469 195.648438 C 922.578125 195.445312 922.578125 195.195312 922.578125 194.921875 C 922.578125 194.265625 922.550781 193.640625 922.550781 192.992188 C 922.550781 192.601562 922.550781 192.203125 922.550781 191.804688 C 922.507812 190.367188 922.507812 188.960938 922.507812 187.523438 C 922.507812 186.242188 922.46875 184.90625 922.441406 183.554688 C 922.441406 182.453125 922.371094 181.289062 922.371094 180.1875 C 922.371094 179.460938 922.371094 178.835938 922.371094 178.171875 C 922.332031 177.398438 922.332031 176.617188 922.332031 175.90625 C 922.332031 175.625 922.332031 175.453125 922.304688 175.179688 C 922.441406 172.710938 926.992188 170.875 934.101562 169.023438 C 946.710938 166.476562 964.25 166.359375 978.195312 168.492188 Z M 978.195312 168.492188" style="stroke:none;fill-rule:nonzero;fill:rgb(2.352941%,30.980393%,24.705882%);fill-opacity:1;"/>
<path d="M 538.261719 211.90625 C 548.542969 211.90625 558.769531 211.90625 569.367188 211.90625 C 569.394531 213.53125 569.394531 213.53125 569.433594 215.132812 C 569.472656 215.796875 569.472656 216.492188 569.503906 217.148438 C 569.53125 218.257812 569.558594 219.367188 569.640625 220.390625 C 569.667969 221.328125 569.695312 222.15625 569.746094 223.054688 C 569.746094 223.382812 569.746094 223.710938 569.746094 224.046875 C 569.777344 224.492188 569.777344 224.945312 569.804688 225.445312 C 569.804688 225.601562 569.804688 225.71875 569.804688 225.84375 C 569.882812 227.070312 571.171875 228.132812 574.765625 229.125 C 575.449219 229.226562 576.132812 229.34375 576.886719 229.5 C 577.433594 229.617188 577.976562 229.695312 578.496094 229.828125 C 583.039062 230.476562 587.546875 230.523438 592.714844 230.523438 C 593.769531 230.523438 593.769531 230.523438 594.835938 230.523438 C 596.300781 230.523438 597.804688 230.523438 599.277344 230.523438 C 601.5625 230.523438 603.820312 230.523438 606.035156 230.523438 C 607.507812 230.523438 608.945312 230.523438 610.410156 230.523438 C 611.394531 230.523438 611.394531 230.523438 612.429688 230.523438 C 618.203125 230.523438 622.617188 230.1875 627.46875 229.5 C 633.242188 228.132812 634.074219 226.429688 634.167969 224.617188 C 634.210938 224.492188 634.210938 224.375 634.210938 224.164062 C 634.238281 223.710938 634.238281 223.257812 634.277344 222.820312 C 634.277344 222.53125 634.304688 222.226562 634.304688 221.898438 C 634.347656 221.054688 634.375 220.195312 634.441406 219.414062 C 634.511719 218.382812 634.550781 217.429688 634.578125 216.445312 C 634.6875 214.882812 634.785156 213.367188 634.851562 211.90625 C 645.078125 211.90625 655.359375 211.90625 665.890625 211.90625 C 665.996094 215.664062 665.996094 215.664062 665.996094 217.273438 C 665.996094 218.382812 666.027344 219.484375 666.027344 220.601562 C 666.054688 221.492188 666.054688 222.328125 666.054688 223.257812 C 666.054688 223.59375 666.054688 223.882812 666.082031 224.289062 C 666.164062 227.734375 665.070312 230.78125 654.992188 233.523438 C 654.511719 233.640625 653.992188 233.84375 653.527344 233.96875 C 645.574219 235.976562 633.652344 237.140625 622.140625 237.414062 C 619.484375 237.414062 616.765625 237.414062 614.070312 237.414062 C 612.597656 237.414062 612.597656 237.414062 611.09375 237.414062 C 609.054688 237.414062 606.960938 237.414062 604.914062 237.414062 C 601.808594 237.414062 598.652344 237.414062 595.546875 237.414062 C 578.144531 237.484375 564.140625 236.960938 551.042969 234.179688 C 542.433594 232.078125 537.949219 229.617188 538.054688 226.835938 C 538.054688 226.710938 538.054688 226.507812 538.054688 226.296875 C 538.054688 225.796875 538.125 225.273438 538.125 224.742188 C 538.125 224.375 538.125 223.953125 538.125 223.664062 C 538.125 222.679688 538.164062 221.703125 538.164062 220.71875 C 538.191406 219.695312 538.191406 218.710938 538.191406 217.71875 C 538.191406 215.796875 538.21875 213.820312 538.261719 211.90625 Z M 538.261719 211.90625" style="stroke:none;fill-rule:nonzero;fill:rgb(10.980392%,43.921569%,83.92157%);fill-opacity:1;"/>
<path d="M 1097.949219 211.765625 C 1099.082031 211.765625 1099.082031 211.765625 1100.285156 211.765625 C 1105.371094 211.765625 1108.515625 211.976562 1112.65625 212.679688 C 1114.257812 213.039062 1114.257812 213.039062 1115.652344 213.632812 C 1115.925781 213.703125 1116.132812 213.820312 1116.433594 213.960938 C 1119.929688 215.3125 1123.214844 216.75 1126.492188 218.140625 C 1129.777344 219.5625 1133.191406 220.976562 1136.613281 222.328125 C 1140.34375 223.835938 1143.964844 225.34375 1147.519531 226.835938 C 1151.105469 228.335938 1154.792969 229.898438 1158.542969 231.390625 C 1159.03125 231.578125 1159.441406 231.75 1159.960938 231.960938 C 1160.808594 232.289062 1161.699219 232.617188 1162.589844 233.015625 C 1164.667969 233.84375 1166.6875 234.695312 1168.738281 235.460938 C 1169.109375 235.648438 1169.464844 235.789062 1169.835938 235.929688 C 1172.265625 236.914062 1172.265625 236.914062 1172.265625 237.351562 C 1161.191406 237.351562 1150.105469 237.351562 1138.660156 237.351562 C 1136.203125 236.3125 1133.671875 235.359375 1131.144531 234.296875 C 1130.566406 234.09375 1130.019531 233.898438 1129.433594 233.726562 C 1127.148438 233.59375 1127.148438 233.59375 1124.445312 233.640625 C 1122.914062 233.640625 1122.914062 233.640625 1121.339844 233.59375 C 1120.175781 233.59375 1119.003906 233.59375 1117.878906 233.59375 C 1116.707031 233.59375 1115.558594 233.59375 1114.367188 233.59375 C 1111.316406 233.59375 1108.269531 233.59375 1105.164062 233.59375 C 1102.050781 233.59375 1098.917969 233.59375 1095.800781 233.59375 C 1089.636719 233.523438 1083.535156 233.523438 1077.382812 233.523438 C 1077.957031 232.742188 1078.847656 232.242188 1080.460938 231.578125 C 1080.925781 231.390625 1081.335938 231.179688 1081.816406 230.976562 C 1082.335938 230.78125 1082.773438 230.617188 1083.261719 230.40625 C 1084.191406 230.023438 1085.09375 229.617188 1086.023438 229.289062 C 1086.433594 229.125 1086.886719 228.914062 1087.296875 228.773438 C 1087.898438 228.515625 1088.515625 228.273438 1089.089844 227.9375 C 1098 227.9375 1106.875 227.9375 1115.996094 227.9375 C 1114.011719 227.070312 1112.082031 226.226562 1110.007812 225.34375 C 1109.132812 224.875 1109.132812 224.875 1108.132812 224.492188 C 1105 223.054688 1101.75 221.703125 1098.410156 220.335938 C 1092.96875 222.484375 1087.804688 224.664062 1082.664062 226.898438 C 1082.363281 227.007812 1082.0625 227.164062 1081.679688 227.289062 C 1081.378906 227.492188 1081.035156 227.609375 1080.695312 227.734375 C 1080.050781 227.992188 1079.421875 228.335938 1078.777344 228.5625 C 1078.257812 228.773438 1078.257812 228.773438 1077.765625 229.054688 C 1074.472656 230.40625 1071.191406 231.84375 1067.871094 233.242188 C 1067.363281 233.445312 1066.886719 233.640625 1066.335938 233.898438 C 1065.859375 234.09375 1065.421875 234.296875 1064.902344 234.507812 C 1064.492188 234.695312 1064.09375 234.867188 1063.683594 235.007812 C 1061.828125 235.789062 1059.914062 236.5625 1058.066406 237.351562 C 1046.71875 237.351562 1035.359375 237.351562 1023.613281 237.351562 C 1025.183594 236.429688 1026.964844 235.648438 1028.957031 234.75 C 1029.285156 234.632812 1029.667969 234.507812 1030.078125 234.296875 C 1033.390625 232.867188 1036.914062 231.460938 1040.429688 230.070312 C 1043.722656 228.726562 1046.882812 227.398438 1050.066406 226.054688 C 1054.101562 224.375 1058.175781 222.679688 1062.34375 220.976562 C 1066.160156 219.484375 1069.890625 217.929688 1073.542969 216.367188 C 1084.355469 211.765625 1084.355469 211.765625 1097.949219 211.765625 Z M 1097.949219 211.765625" style="stroke:none;fill-rule:nonzero;fill:rgb(22.352941%,70.588237%,29.019609%);fill-opacity:1;"/>
<path d="M 774.746094 220.71875 C 783 222.679688 785.886719 225.273438 786.296875 227.992188 C 785.925781 230.523438 783 233.070312 775.15625 234.960938 C 765.078125 237.015625 753.390625 237.539062 740.058594 237.539062 C 738.351562 237.539062 736.679688 237.539062 734.960938 237.625 C 733.839844 237.625 732.746094 237.625 731.652344 237.625 C 730.144531 237.625 730.144531 237.625 728.640625 237.625 C 725.527344 237.539062 725.527344 237.539062 717.980469 237.140625 C 717.980469 235.148438 717.980469 233.140625 717.980469 231.054688 C 720.769531 231.109375 723.625 231.179688 726.523438 231.25 C 738.828125 231.507812 738.828125 231.507812 750.421875 230.679688 C 754.265625 229.898438 755.519531 228.960938 755.792969 227.734375 C 755.273438 226.507812 754.128906 225.601562 749.863281 224.664062 C 744.296875 223.953125 738.625 224.046875 732.292969 224.046875 C 731.238281 224.046875 730.214844 224.046875 729.160156 224.046875 C 720.851562 224.046875 720.851562 224.046875 713.742188 224.875 C 711.046875 225.9375 710.910156 226.710938 710.910156 227.851562 C 710.910156 227.992188 710.867188 228.1875 710.867188 228.390625 C 710.828125 228.960938 710.828125 229.554688 710.828125 230.117188 C 710.828125 230.523438 710.773438 230.90625 710.773438 231.390625 C 710.730469 232.414062 710.691406 233.523438 710.691406 234.570312 C 710.664062 235.648438 710.636719 236.757812 710.59375 237.820312 C 710.527344 239.96875 710.457031 242.09375 710.390625 244.21875 C 700.722656 244.21875 691.003906 244.21875 681.007812 244.21875 C 680.925781 241.695312 680.898438 239.25 680.871094 236.710938 C 680.820312 235.523438 680.820312 234.421875 680.789062 233.242188 C 680.734375 232.078125 680.683594 230.976562 680.683594 229.898438 C 680.683594 229.414062 680.683594 229.054688 680.652344 228.5625 C 680.546875 225.445312 680.683594 222.726562 690.265625 220.335938 C 710.664062 215.867188 754.757812 216.648438 774.746094 220.71875 Z M 774.746094 220.71875" style="stroke:none;fill-rule:nonzero;fill:rgb(10.980392%,43.921569%,83.529413%);fill-opacity:1;"/>
<path d="M 887.753906 220.265625 C 896.875 222.226562 901.042969 224.820312 901.425781 227.609375 C 900.878906 230.476562 896.765625 232.742188 888.261719 234.75 C 877.5 236.960938 864.785156 237.484375 850.734375 237.414062 C 848.613281 237.414062 846.464844 237.414062 844.335938 237.484375 C 830.007812 237.484375 817.675781 236.757812 806.886719 234.507812 C 797.410156 232.171875 795.332031 229.554688 795.742188 226.507812 C 796.347656 224.046875 801.105469 221.898438 808.789062 220.265625 C 828.886719 216.445312 867.644531 216.492188 887.753906 220.265625 Z M 828.039062 225.273438 C 824.753906 226.382812 824.972656 227.492188 825.4375 228.726562 C 826.804688 229.695312 829.433594 230.28125 833.027344 230.851562 C 837.878906 231.390625 842.667969 231.304688 847.957031 231.304688 C 849.433594 231.304688 849.433594 231.304688 850.898438 231.304688 C 856.804688 231.304688 860.753906 231.179688 865.769531 230.476562 C 870.3125 229.34375 871.160156 228.460938 871.074219 227.007812 C 870.585938 226.007812 868.738281 225.398438 865.390625 224.617188 C 859.863281 223.835938 854.738281 223.835938 848.273438 223.835938 C 846.835938 223.835938 846.835938 223.835938 845.34375 223.835938 C 838.320312 223.835938 832.890625 224.046875 828.039062 225.273438 Z M 828.039062 225.273438" style="stroke:none;fill-rule:nonzero;fill:rgb(11.372549%,43.921569%,83.529413%);fill-opacity:1;"/>
<path d="M 912.773438 217.601562 C 927.101562 217.601562 927.101562 217.601562 941.691406 217.601562 C 946.164062 217.601562 946.164062 217.601562 950.742188 217.601562 C 954.472656 217.601562 954.472656 217.601562 956.210938 217.601562 C 957.414062 217.601562 958.605469 217.601562 959.804688 217.601562 C 966.589844 217.546875 973.339844 217.601562 980.097656 217.804688 C 980.671875 217.804688 981.242188 217.804688 981.816406 217.851562 C 991.210938 218.140625 999.414062 218.914062 1006.003906 220.476562 C 1011.335938 222.101562 1014.492188 223.882812 1014.492188 226.007812 C 1014.492188 226.054688 1014.492188 226.171875 1014.492188 226.296875 C 1014.492188 226.78125 1014.492188 227.164062 1014.441406 227.5625 C 1014.441406 227.789062 1014.441406 228.132812 1014.441406 228.390625 C 1014.441406 229.125 1014.441406 229.898438 1014.441406 230.617188 C 1014.441406 231.507812 1014.414062 232.414062 1014.414062 233.242188 C 1014.414062 234.632812 1014.414062 235.976562 1014.386719 237.351562 C 1004.675781 237.351562 995 237.351562 984.992188 237.351562 C 984.992188 236.5625 984.949219 235.734375 984.921875 234.867188 C 984.894531 234.296875 984.855469 233.640625 984.785156 233.015625 C 984.757812 232.289062 984.71875 231.632812 984.71875 230.976562 C 984.675781 230.1875 984.648438 229.414062 984.621094 228.632812 C 984.621094 228.390625 984.582031 228.132812 984.582031 227.851562 C 984.582031 227.664062 984.539062 227.492188 984.539062 227.210938 C 984.539062 227.007812 984.484375 226.835938 984.484375 226.625 C 983.992188 225.796875 982.707031 225.148438 979.960938 224.546875 C 977.429688 224.242188 975.28125 224.09375 972.414062 224.09375 C 971.6875 224.09375 971.046875 224.09375 970.320312 224.09375 C 969.265625 224.09375 969.265625 224.09375 968.203125 224.09375 C 967.519531 224.046875 966.835938 224.046875 966.179688 224.046875 C 963.703125 224.046875 961.28125 224.046875 958.808594 224.046875 C 953.328125 223.953125 947.832031 223.953125 942.167969 223.953125 C 942.167969 228.390625 942.167969 232.804688 942.167969 237.351562 C 932.460938 237.351562 922.78125 237.351562 912.773438 237.351562 C 912.773438 230.851562 912.773438 224.289062 912.773438 217.601562 Z M 912.773438 217.601562" style="stroke:none;fill-rule:nonzero;fill:rgb(10.980392%,43.921569%,83.92157%);fill-opacity:1;"/>
<path d="M 894.207031 153.632812 C 901.632812 154.71875 907.675781 156.351562 909.523438 158.359375 C 912.363281 161.875 906.621094 164.476562 899.675781 167.46875 C 898.859375 167.828125 898.09375 168.15625 897.285156 168.492188 C 895.714844 169.21875 894.070312 169.929688 892.460938 170.65625 C 890.203125 171.609375 888.015625 172.601562 885.867188 173.570312 C 885.15625 173.898438 884.503906 174.15625 883.847656 174.492188 C 882.929688 174.851562 882 175.335938 881.054688 175.710938 C 880.234375 176.117188 879.386719 176.492188 878.515625 176.890625 C 877.996094 177.070312 877.558594 177.273438 877.050781 177.515625 C 875.847656 177.960938 875.847656 177.960938 874.152344 178.171875 C 873.742188 177.960938 873.742188 177.960938 873.289062 177.773438 C 866.34375 174.601562 866.34375 174.601562 859.179688 171.4375 C 858.828125 171.273438 858.523438 171.164062 858.144531 170.945312 C 856.542969 170.304688 854.902344 169.59375 853.300781 168.890625 C 851.855469 168.320312 850.429688 167.664062 849.050781 167.054688 C 848.476562 166.804688 847.929688 166.554688 847.355469 166.359375 C 841.300781 163.742188 837.117188 161.148438 840.792969 158.179688 C 841.230469 157.90625 841.738281 157.578125 842.257812 157.335938 C 842.488281 157.125 842.667969 157.007812 842.910156 156.84375 C 846.152344 154.859375 852.824219 153.726562 860.984375 152.898438 C 871.515625 151.945312 884.609375 152.328125 894.207031 153.632812 Z M 894.207031 153.632812" style="stroke:none;fill-rule:nonzero;fill:rgb(1.568628%,30.980393%,54.901963%);fill-opacity:1;"/>
<path d="M 975.800781 168.15625 C 984.648438 169.523438 989.121094 171.226562 991.730469 173.570312 C 992.128906 174.351562 992.128906 175.054688 992.101562 175.757812 C 992.101562 176.046875 992.101562 176.210938 992.101562 176.40625 C 992.101562 177.117188 992.058594 177.773438 992.058594 178.507812 C 992.058594 178.945312 992.03125 179.460938 992.03125 179.9375 C 992.03125 181.164062 991.992188 182.398438 991.921875 183.703125 C 991.894531 184.90625 991.894531 186.242188 991.867188 187.523438 C 991.867188 189.984375 991.785156 192.539062 991.730469 194.992188 C 990.320312 194.539062 989.296875 194.09375 988.214844 193.554688 C 987.859375 193.429688 987.507812 193.265625 987.097656 193.054688 C 986.738281 192.867188 986.359375 192.65625 985.90625 192.476562 C 981.132812 190.195312 976.074219 187.929688 970.949219 185.640625 C 970.046875 185.1875 969.171875 184.804688 968.28125 184.414062 C 960.789062 181.085938 953.191406 177.71875 945.617188 174.398438 C 944.523438 173.945312 943.429688 173.429688 942.304688 172.992188 C 941.582031 172.648438 940.800781 172.335938 940.089844 172.007812 C 937.78125 171.039062 935.632812 169.976562 933.800781 168.945312 C 946.328125 166.757812 961.777344 166.359375 975.800781 168.15625 Z M 975.800781 168.15625" style="stroke:none;fill-rule:nonzero;fill:rgb(21.960784%,70.588237%,28.627452%);fill-opacity:1;"/>
<path d="M 971.359375 152.070312 C 978.90625 153.164062 984.304688 154.507812 987.179688 156.46875 C 988.925781 158.757812 987.644531 160.820312 981.875 162.789062 C 977.46875 164.023438 971.085938 165.039062 964.03125 165.304688 C 953.546875 165.492188 945.136719 165.367188 936.824219 163.742188 C 929.894531 162.257812 926.882812 160.695312 926.203125 158.476562 C 926.308594 156.414062 929.6875 154.789062 935.632812 153.351562 C 944.453125 151.398438 960.246094 150.773438 971.359375 152.070312 Z M 971.359375 152.070312" style="stroke:none;fill-rule:nonzero;fill:rgb(22.352941%,70.588237%,29.019609%);fill-opacity:1;"/>
<path d="M 1182.34375 217.804688 C 1192.039062 217.804688 1201.730469 217.804688 1211.738281 217.804688 C 1211.738281 224.242188 1211.738281 230.726562 1211.738281 237.351562 C 1202.03125 237.351562 1192.363281 237.351562 1182.34375 237.351562 C 1182.34375 230.90625 1182.34375 224.445312 1182.34375 217.804688 Z M 1182.34375 217.804688" style="stroke:none;fill-rule:nonzero;fill:rgb(21.960784%,70.588237%,29.019609%);fill-opacity:1;"/>
<path d="M 1196.5625 210.0625 C 1197.207031 210.0625 1197.863281 210.0625 1198.574219 210.0625 C 1203.097656 210.0625 1205.683594 210.210938 1209.25 210.914062 C 1211.945312 211.570312 1212.082031 212.023438 1212.082031 212.929688 C 1211.972656 213.90625 1211.699219 214.53125 1208.386719 215.3125 C 1203.125 216.085938 1196.835938 216.039062 1190.710938 215.921875 C 1186.269531 215.46875 1183.671875 214.929688 1181.496094 213.960938 C 1181.085938 212.976562 1180.949219 212.140625 1182.917969 211.1875 C 1187.140625 210.210938 1190.644531 210.0625 1196.5625 210.0625 Z M 1196.5625 210.0625" style="stroke:none;fill-rule:nonzero;fill:rgb(22.352941%,70.588237%,29.019609%);fill-opacity:1;"/>
<path d="M 935.46875 203.046875 C 938.644531 203.320312 941.621094 203.6875 944.617188 204.015625 C 948.894531 204.46875 953.4375 204.46875 957.949219 204.46875 C 958.632812 204.554688 959.316406 204.554688 959.972656 204.554688 C 961.582031 204.554688 963.210938 204.554688 964.824219 204.609375 C 964.824219 204.679688 964.824219 204.742188 964.824219 204.804688 C 954.609375 205.078125 945.097656 205.007812 936.277344 203.617188 C 936.003906 203.445312 935.742188 203.242188 935.46875 203.046875 Z M 935.46875 203.046875" style="stroke:none;fill-rule:nonzero;fill:rgb(10.196079%,42.352942%,76.862746%);fill-opacity:1;"/>
<path d="M 854.835938 153.796875 C 853.671875 154.460938 852.316406 154.859375 850.242188 155.289062 C 849.476562 155.492188 849.476562 155.492188 848.710938 155.6875 C 847.273438 155.945312 847.273438 155.945312 845.605469 155.945312 C 845.34375 156.140625 845.070312 156.351562 844.746094 156.554688 C 844.472656 156.414062 844.199219 156.273438 843.953125 156.140625 C 852.644531 153.796875 852.644531 153.796875 854.835938 153.796875 Z M 854.835938 153.796875" style="stroke:none;fill-rule:nonzero;fill:rgb(6.27451%,37.254903%,69.411767%);fill-opacity:1;"/>
</g>
</svg>